<svg width="36" height="36" viewBox="0 0 36 36" fill="none" xmlns="http://www.w3.org/2000/svg">
<path d="M0 4.1818C0 2.96966 0.405417 1.96967 1.21622 1.18182C2.02702 0.393928 3.08109 0 4.37838 0C5.65253 0 6.68338 0.387855 7.47104 1.16363C8.28184 1.96363 8.68727 3.00602 8.68727 4.29091C8.68727 5.45454 8.29345 6.4242 7.50579 7.2C6.69498 7.99999 5.62934 8.39999 4.30888 8.39999H4.27413C2.99999 8.39999 1.96912 7.99999 1.18147 7.2C0.39381 6.39999 0 5.39393 0 4.1818ZM0.451736 36V11.7091H8.16603V36H0.451736ZM12.4402 36H20.1544V22.4363C20.1544 21.5878 20.2471 20.9333 20.4324 20.4727C20.7568 19.6484 21.2491 18.9515 21.9092 18.3818C22.5695 17.8121 23.3977 17.5273 24.3938 17.5273C26.9884 17.5273 28.2856 19.3575 28.2856 23.0182V36H36V22.0727C36 18.4848 35.1892 15.7636 33.5677 13.9091C31.946 12.0545 29.8031 11.1273 27.1389 11.1273C24.1505 11.1273 21.8224 12.4727 20.1544 15.1636V15.2363H20.1197L20.1544 15.1636V11.7091H12.4402C12.4865 12.4848 12.5097 14.8969 12.5097 18.9454C12.5097 22.9939 12.4865 28.6787 12.4402 36Z" fill="#F5F5F5"/>
</svg>
